<?xml version="1.0" encoding="UTF-8"?><svg xmlns="http://www.w3.org/2000/svg" viewBox="0 0 322.96 174.18"><defs><style>.d,.e{fill-rule:evenodd;}.d,.f{fill:#0f4c90;}.g,.e{fill:#f68b1f;}</style></defs><g id="a"/><g id="b"><g id="c"><g><path class="f" d="M116.98,36.76h0c0,8.15-6.61,14.76-14.76,14.76h-25.31v103.3c0,10.17-8.25,18.42-18.42,18.42h0c-10.17,0-18.42-8.25-18.42-18.42V51.52H14.76c-8.15,0-14.76-6.61-14.76-14.76H0c0-8.15,6.61-14.76,14.76-14.76H102.22c8.15,0,14.76,6.61,14.76,14.76Z"/><rect class="g" x="135.1" y="53.03" width="36.84" height="120.21" rx="18.42" ry="18.42"/><path class="f" d="M293.28,82.85c-4.41,0-8.7-1.71-11.69-4.95-1.9-2.06-4.14-3.77-6.74-5.12-4.46-2.32-9.7-3.48-15.72-3.48-10.42,0-18.77,3.42-25.04,10.26-6.28,6.84-9.42,15.98-9.42,27.4,0,12.18,3.3,21.69,9.89,28.53,6.59,6.84,15.66,10.26,27.21,10.26,7.91,0,14.59-2.01,20.05-6.03,5.46-4.02,9.44-9.79,11.96-17.32h-29c-6.55,0-11.86-5.31-11.86-11.86h0c0-6.55,5.31-11.86,11.86-11.86h58.18v29.94c-2.39,8.04-6.43,15.5-12.14,22.41-5.71,6.91-12.96,12.49-21.75,16.76-8.79,4.27-18.71,6.4-29.75,6.4-13.06,0-24.7-2.85-34.93-8.57-10.23-5.71-18.2-13.65-23.91-23.82-5.71-10.17-8.57-21.78-8.57-34.83s2.85-24.7,8.57-34.93c5.71-10.23,13.65-18.2,23.82-23.91,10.17-5.71,21.78-8.57,34.83-8.57,15.82,0,29.15,3.83,40.01,11.49,1.74,1.22,3.38,2.52,4.93,3.9,10.97,9.74,3.88,27.92-10.79,27.92h0Z"/><g><path class="d" d="M146.26,30.42c-3.79-3.61-8.21-8.92-7.49-14.55,.93-7.27,10.22-12.06,20.11-15.17-1.71-.46-3.51-.71-5.37-.71-11.38,0-20.6,9.23-20.6,20.61s9.23,20.61,20.6,20.61c2.04,0,4.01-.3,5.87-.85-4.74-3.01-9.33-6.33-13.13-9.94Z"/><path class="d" d="M152.51,15.12c2.34,4.22,11.12,8.21,20.73,11.48,.58-1.9,.88-3.91,.88-5.99,0-7.19-3.68-13.52-9.27-17.21-7.79,3.03-14.87,7.16-12.35,11.72Z"/><path class="d" d="M140.61,16.11c.72-5.69,7.61-10.5,21.23-14.34-.55-.24-1.12-.46-1.69-.66-13.2,3.95-19.9,8.93-20.66,14.85-.88,6.91,6.36,14.98,20.83,24.1,.44-.15,.88-.32,1.31-.51-14.55-9.02-21.86-16.89-21.02-23.45Z"/><path class="d" d="M162.89,2.27c-10.7,4.41-14.63,9-11.99,13.75,2.24,4.05,9.54,8.15,21.74,12.3,.14-.34,.27-.69,.39-1.03-11.92-4.03-19.02-7.97-21.15-11.82-2.33-4.2,1.68-8.38,12.23-12.53-.4-.24-.8-.46-1.22-.68Z"/><path class="e" d="M170.41,32.42c-2.67-1.03-5.12-2.05-7.37-3.07l-2.63,1.57c2.41,1.27,5.11,2.55,8.07,3.85,.7-.74,1.34-1.52,1.92-2.36Z"/><path class="e" d="M146.59,14.53c.4-4.2,5.55-8.32,16.13-12.34-.12-.06-.23-.12-.35-.17-10.57,3.87-16.17,8.03-17.12,12.45l1.34,.07Z"/><path class="e" d="M147.96,19.07c-.73-1.06-1.17-2.12-1.33-3.17l-1.51,.29c.07,1.14,.43,2.29,1.08,3.46l1.76-.58Z"/><path class="e" d="M148.76,20.11l-1.82,.7c.84,1.17,1.95,2.35,3.35,3.54l2.35-.79c-1.6-1.16-2.9-2.31-3.88-3.45Z"/><path class="e" d="M154.14,24.59l-2.59,.79c1.89,1.46,4.19,2.95,6.88,4.46l2.54-1.47c-2.62-1.27-4.91-2.53-6.83-3.78Z"/></g></g></g></g></svg>